<?xml version="1.0" encoding="UTF-8"?>
<svg id="Layer_4" data-name="Layer 4" xmlns="http://www.w3.org/2000/svg" viewBox="0 0 1000 1000">
  <defs>
    <style>
      .cls-1 {
        fill: #000;
      }

      .cls-1, .cls-2, .cls-3, .cls-4, .cls-5 {
        stroke-width: 0px;
      }

      .cls-2 {
        fill: #370617;
      }

      .cls-3 {
        fill: #fffcf8;
      }

      .cls-4 {
        fill: #fff7e6;
      }

      .cls-5 {
        fill: #faedcd;
      }
    </style>
  </defs>
  <path class="cls-1" d="M707.52,319.19s.1.04.15.06c2.56-3.95,4.6-8.05,6.13-12.24v-.03c1.77-4.84,2.88-9.78,3.33-14.75-2.3,9.39-5.54,18.41-9.61,26.96Z"/>
  <path class="cls-1" d="M707.67,319.25s-.1-.04-.15-.06c4.07-8.55,7.31-17.57,9.61-26.96.35-3.75.32-7.52-.07-11.27-.88-8.64-3.67-17.23-8.2-25.33-1.21-2.17-2.55-4.3-4.01-6.38-10.36-14.77-26.86-27.3-48.51-34.58,1.88-15.44-1.5-28.96-10.21-40.39-9.08-11.92-23.68-21.14-43.9-27.45-7.15-20.84-30.62-33.79-47.69-43.21-3.55-1.94-6.75-3.71-9.49-5.45-.66-.55-1.11-1.01-1.27-1.36v-.04c.25-.73.97-1.75,2.26-3.12,1.78-1.85,4.41-4.01,8.06-6.51l.09-.08c3.01-2.12,5.08-4.68,6.26-7.41,1.24-2.88,1.46-5.93.74-8.84-.72-2.87-2.32-5.57-4.73-7.84v-.04c-2.39-2.22-5.59-4.04-9.5-5.15h-.05c-22.85-6.42-45.72-8.14-66.77-5.84-21.24,2.31-40.68,8.67-56.51,18.36-16.02,9.81-28.37,23.06-35.17,39.01-4.29,10.07-6.34,21.17-5.65,33.09-2.72.77-5.37,1.61-7.92,2.53-20.82,7.46-35.5,19.68-43.76,34.29-3.24,5.72-5.46,11.79-6.68,18.06-1.67,8.63-1.41,17.64.8,26.66.25,1.02.52,2.04.82,3.06.51,1.74,1.1,3.51,1.77,5.26-3.13,1.22-6.1,2.51-8.89,3.88-9.34,4.55-16.79,9.9-22.46,15.82-.12.12-.23.23-.34.35-7.65,8.11-11.98,17.19-13.33,26.7-1.31,9.28.27,18.87,4.38,28.27,1.67,3.8,3.76,7.58,6.25,11.3-9.74,3.55-11.57,9.05-10.75,19.92,6.55,87.34,13.12,174.68,19.62,262.03,7.31,98.08,14.6,196.14,21.61,294.23.52,7.11,3.22,12.02,8.49,16.29,3.79,3.06,7.74,5.79,11.83,8.25,4.17,2.5,8.49,4.71,12.91,6.7,6.47,2.91,13.15,5.35,19.98,7.51,30.07,9.47,61.1,13.42,92.48,14.75,49.61,2.11,98.93.55,147.15-12.9,9.36-2.61,18.55-5.65,27.25-9.67,4.46-2.06,8.79-4.36,12.95-7,3.79-2.42,7.45-5.11,10.93-8.12,3.58-3.11,6.92-8.01,7.63-12.5,1.85-11.61,2.23-23.44,3.1-35.18,5.9-80.71,11.71-161.44,17.69-242.14,6.98-94.25,14.1-188.48,21.14-282.72.78-10.24-.91-15.07-9.79-18.78ZM347.94,247.45l12.72-3.68-5.44-9.98c-2.06-3.77-3.65-7.62-4.78-11.48-3.07-10.41-2.67-20.72,1.09-29.92.67-1.62,1.44-3.21,2.31-4.76,5.75-10.18,16.18-18.76,31.12-24.12,4.28-1.54,8.98-2.82,14.1-3.8l11-2.13-1.51-9.12c-.02-.15-.05-.29-.07-.44-1.89-11.86-.47-22.66,3.57-32.12,5.08-11.93,14.45-21.93,26.66-29.41,12.43-7.6,27.82-12.61,44.75-14.45,15.56-1.69,32.39-.72,49.39,3.33-2.59,2.05-4.76,4-6.57,5.89-3.32,3.49-5.44,6.86-6.56,10.15-1.58,4.65-1.15,8.85.73,12.74,1.64,3.4,4.32,6.31,7.66,8.94l.92.67c2.95,1.9,7,4.14,11.51,6.63,14.9,8.21,35.92,19.8,38.55,35.45l1.07,6.34,7.45,1.96c18.02,4.77,30.41,11.75,37.29,20.78,6.87,9.03,8.61,20.65,5.33,34.66l-2.11,8.98,10.82,2.62c6.39,1.55,12.29,3.66,17.63,6.24,2.31,17.9-2.76,34.18-13.83,42.02-7.72,5.48-21.32,8.85-32.92,3.31-14.86-7.09-20.02-27.31-25.02-46.85-5.62-22.02-11.43-44.79-31.93-51.53-3.25-1.07-13.13-4.32-22.26.54-9.93,5.29-12.1,16.23-13.84,25.02-1.55,7.81-2.83,13.09-6.35,15.08-2.86,1.63-7.45,1.83-9.44.42-2-1.41-1.98-7.36-1.96-13.11.04-9.99.09-23.68-9.44-35.4-5.53-6.79-11.91-10.04-15.22-11.37-11.48-4.62-28.59-4.5-37.71,4.83-9.97,10.19-6.22,25.49-2.92,39,2.31,9.45,4.93,20.17,1.12,23.8-1.78,1.7-5.2,2.64-7.46,2.05-3.38-.88-6.13-6.62-7.95-10.41-2.1-4.38-5.27-11.01-12.48-9.73-2.74.5-7.42,2.56-7.88,10.89-.13,2.46,0,5.55.18,9.13.55,11.81,1.46,31.59-8.43,41.09-4.4,4.23-10.98,6.57-16.39,5.84-13.35-1.81-25.8-7.39-27.79-34.21.43-.13.86-.25,1.29-.38ZM307.67,281.32v-.05c.16-1.13.39-2.26.7-3.37,1.25-4.68,3.77-9.16,7.64-13.27,3.73-3.95,8.76-7.59,15.18-10.8,3.33,26.32,16.86,40.78,41.1,44.07,10.14,1.37,21.76-2.62,29.62-10.16,11.35-10.9,13.55-27.31,13.66-40.96,2.18,1.74,4.75,3.14,7.78,3.93,7.65,2,16.71-.39,22.54-5.95,10.51-10.02,6.72-25.51,3.38-39.18-2.31-9.46-4.93-20.18-1.18-24.02,3.43-3.5,13.1-4.06,20.29-1.17,1.52.61,5.41,2.48,8.78,6.63,5.93,7.28,5.89,16.41,5.86,25.24-.04,9.39-.08,20.02,8.74,26.25,7.98,5.63,19.4,4.48,26.56.42,10.15-5.76,12.36-16.92,14.14-25.89,1.25-6.32,2.44-12.29,5.67-14.01,3.09-1.65,7.75-.11,9.74.54,12.17,4,16.67,21.63,21.43,40.28,5.63,22.04,12.01,47.02,33.62,57.34,6.48,3.09,13.25,4.4,19.82,4.4,11.21,0,21.82-3.82,29.26-9.09,13.17-9.33,20.57-25.6,21.13-44.25,5.42,4.72,9.77,10.06,12.94,15.72,3.33,5.96,5.39,12.29,6.04,18.67.65,6.29-.08,12.6-2.28,18.58-4.57,12.5-10.83,29.31-29.46,36.75l-16.09,6.62c-1.53.19-3.07.37-4.61.54-2.72.31-5.43.61-8.15.9-4.46.48-8.92.93-13.38,1.35-2.51.24-5.02.47-7.53.69-1.04.09-2.07.18-3.11.27-1.23.11-2.46.21-3.69.31-2.4.2-4.8.39-7.2.57-3.12.25-6.24.47-9.36.68-1.38.1-2.78.19-4.17.28-1.75.12-3.5.23-5.25.33-1.94.12-3.88.23-5.83.34-2.02.11-4.04.22-6.06.32-2.02.11-4.05.2-6.07.29l-18.7.72c-3.25.1-6.5.18-9.74.25-3.22.08-6.44.14-9.66.19-2.71.04-5.41.07-8.12.09-.78.01-1.55.02-2.32.01-2.49.03-4.98.04-7.48.04s-4.81,0-7.21-.02c-.04.01-.07.01-.11,0-.07.01-.14.01-.21,0-.34.01-.67,0-1.01,0-1.47,0-2.93-.01-4.4-.03-3.82-.03-7.64-.08-11.46-.15-1.85-.03-3.71-.07-5.56-.11h-.01s-.01.01-.03,0c-.01.01-.02.01-.03,0,0,0-.01.01-.02,0-.03.01-.05.01-.08,0-3.25-.06-6.5-.15-9.75-.25-2.82-.08-5.64-.17-8.46-.27-4.15-.14-8.3-.3-12.46-.49-1.07-.05-2.13-.1-3.19-.15-2.1-.09-4.2-.19-6.31-.3-2.32-.12-4.64-.24-6.97-.37-2.48-.14-4.97-.28-7.46-.44-2.3-.14-4.61-.29-6.91-.44-2.08-.13-4.15-.27-6.23-.42h-.04c-2.11-.14-4.21-.3-6.32-.46-2.08-.15-4.15-.31-6.22-.48-1.25-.1-2.5-.19-3.75-.3-.64-.04-1.27-.09-1.91-.15-1.12-.09-2.24-.18-3.37-.28-.26-.02-.53-.04-.8-.07-1.67-.14-3.33-.29-5-.44-1.94-.17-3.88-.34-5.82-.52-2.47-.23-4.95-.46-7.42-.7-.98-.1-1.95-.2-2.93-.31-.43-.04-.86-.09-1.29-.15-1.59-.18-3.18-.38-4.77-.6-.39-.06-.79-.12-1.19-.17-.51-.07-1.01-.14-1.51-.22-1.03-.15-2.05-.31-3.08-.47-.21-.03-.42-.06-.63-.1-.76-.12-1.53-.24-2.29-.37l-13.91-11.66c-7.84-8.77-17.97-19.99-22.94-31.34-1.22-2.78-2.12-5.57-2.69-8.32-.76-3.71-.92-7.36-.43-10.88ZM698.5,382.93c-3.94,53.37-7.91,106.75-11.89,160.12-4.44,59.76-8.92,119.51-13.35,179.28-3.86,52.1-8.4,104.17-11.05,156.33-.31,6.16-1.42,11.26-3.47,15.58-2.7,5.72-7.05,10.05-13.41,13.64-1.19.65-2.43,1.28-3.74,1.89-25.93,12.03-53.37,17.74-81.52,20.75-44.21,4.71-88.44,4.51-132.52-1.6-24.91-3.45-49.28-8.94-71.7-20.74-1.64-.86-3.27-1.76-4.91-2.69-3.49-2.02-6.22-4.25-8.21-6.96-2.42-3.29-3.77-7.27-4.11-12.39-3.93-59.54-8.41-119.05-12.82-178.55-4.92-66.4-9.96-132.8-14.91-199.18-3.78-50.58-7.49-101.15-11.22-151.71-.16-2.27-.01-4.54-.01-5.14,2.83.47,5.65.93,8.47,1.38,6.79,1.09,13.57,2.12,20.35,3.09,54.05,7.75,107.92,11.84,161.79,12.28,9.4.09,18.8.06,28.2-.09,3.8-.06,7.6-.13,11.39-.23,6.86-.17,13.72-.4,20.58-.69,35.11-1.48,70.24-4.5,105.43-9.08,9.31-1.21,18.62-2.52,27.94-3.96,5.6-.85,11.2-1.74,16.8-2.68-.63,9.29-1.3,20.32-2.11,31.35Z"/>
  <path class="cls-4" d="M689.83,301.22c-4.57,12.5-10.83,29.31-29.46,36.75l-16.09,6.62c-1.53.19-3.07.37-4.61.54-2.72.31-5.43.61-8.15.9-4.46.48-8.92.93-13.38,1.35-2.51.24-5.02.47-7.53.69-1.04.09-2.07.18-3.11.27-1.23.11-2.46.21-3.69.31-2.4.2-4.8.39-7.2.57-3.12.25-6.24.47-9.36.68-1.38.1-2.78.19-4.17.28-1.75.12-3.5.23-5.25.33-1.94.12-3.88.23-5.83.34-2.02.11-4.04.22-6.06.32-2.02.11-4.05.2-6.07.29l-18.7.72c-3.25.1-6.5.18-9.74.25-3.22.08-6.44.14-9.66.19-2.71.04-5.41.07-8.12.09-.78.01-1.55.02-2.32.01-2.49.03-4.98.04-7.48.04s-4.81,0-7.21-.02c-.04.01-.07.01-.11,0-.07.01-.14.01-.21,0-.34.01-.67,0-1.01,0-1.47,0-2.93-.01-4.4-.03-3.82-.03-7.64-.08-11.46-.15-1.85-.03-3.71-.07-5.56-.11h-.01s-.01.01-.03,0c-.01.01-.02.01-.03,0,0,0-.01.01-.02,0-.03.01-.05.01-.08,0-3.25-.06-6.5-.15-9.75-.25-2.82-.08-5.64-.17-8.46-.27-4.15-.14-8.3-.3-12.46-.49-1.07-.05-2.13-.1-3.19-.15-2.1-.09-4.2-.19-6.31-.3-2.32-.12-4.64-.24-6.97-.37-2.48-.14-4.97-.28-7.46-.44-2.3-.14-4.61-.29-6.91-.44-2.08-.13-4.15-.27-6.23-.42h-.04c-2.11-.14-4.21-.3-6.32-.46-2.08-.15-4.15-.31-6.22-.48-1.25-.1-2.5-.19-3.75-.3-.64-.04-1.27-.09-1.91-.15-1.12-.09-2.24-.18-3.37-.28-.26-.02-.53-.04-.8-.07-1.67-.14-3.33-.29-5-.44-1.94-.17-3.88-.34-5.82-.52-2.47-.23-4.95-.46-7.42-.7-.98-.1-1.95-.2-2.93-.31-.43-.04-.86-.09-1.29-.15-1.59-.18-3.18-.38-4.77-.6-.39-.06-.79-.12-1.19-.17-.51-.07-1.01-.14-1.51-.22-1.03-.15-2.05-.31-3.08-.47-.21-.03-.42-.06-.63-.1-.76-.12-1.53-.24-2.29-.37l-13.91-11.66c-7.84-8.77-17.97-19.99-22.94-31.34-1.22-2.78-2.12-5.57-2.69-8.32-.76-3.71-.92-7.36-.43-10.88v-.05c.16-1.13.39-2.26.7-3.37,1.25-4.68,3.77-9.16,7.64-13.27,3.73-3.95,8.76-7.59,15.18-10.8,3.33,26.32,16.86,40.78,41.1,44.07,10.14,1.37,21.76-2.62,29.62-10.16,11.35-10.9,13.55-27.31,13.66-40.96,2.18,1.74,4.75,3.14,7.78,3.93,7.65,2,16.71-.39,22.54-5.95,10.51-10.02,6.72-25.51,3.38-39.18-2.31-9.46-4.93-20.18-1.18-24.02,3.43-3.5,13.1-4.06,20.29-1.17,1.52.61,5.41,2.48,8.78,6.63,5.93,7.28,5.89,16.41,5.86,25.24-.04,9.39-.08,20.02,8.74,26.25,7.98,5.63,19.4,4.48,26.56.42,10.15-5.76,12.36-16.92,14.14-25.89,1.25-6.32,2.44-12.29,5.67-14.01,3.09-1.65,7.75-.11,9.74.54,12.17,4,16.67,21.63,21.43,40.28,5.63,22.04,12.01,47.02,33.62,57.34,6.48,3.09,13.25,4.4,19.82,4.4,11.21,0,21.82-3.82,29.26-9.09,13.17-9.33,20.57-25.6,21.13-44.25,5.42,4.72,9.77,10.06,12.94,15.72,3.33,5.96,5.39,12.29,6.04,18.67.65,6.29-.08,12.6-2.28,18.58Z"/>
  <path class="cls-3" d="M642.74,279.44c-7.72,5.48-21.32,8.85-32.92,3.31-14.86-7.09-20.02-27.31-25.02-46.85-5.62-22.02-11.43-44.79-31.93-51.53-3.25-1.07-13.13-4.32-22.26.54-9.93,5.29-12.1,16.23-13.84,25.02-1.55,7.81-2.83,13.09-6.35,15.08-2.86,1.63-7.45,1.83-9.44.42-2-1.41-1.98-7.36-1.96-13.11.04-9.99.09-23.68-9.44-35.4-5.53-6.79-11.91-10.04-15.22-11.37-11.48-4.62-28.59-4.5-37.71,4.83-9.97,10.19-6.22,25.49-2.92,39,2.31,9.45,4.93,20.17,1.12,23.8-1.78,1.7-5.2,2.64-7.46,2.05-3.38-.88-6.13-6.62-7.95-10.41-2.1-4.38-5.27-11.01-12.48-9.73-2.74.5-7.42,2.56-7.88,10.89-.13,2.46,0,5.55.18,9.13.55,11.81,1.46,31.59-8.43,41.09-4.4,4.23-10.98,6.57-16.39,5.84-13.35-1.81-25.8-7.39-27.79-34.21.43-.13.86-.25,1.29-.38l12.72-3.68-5.44-9.98c-2.06-3.77-3.65-7.62-4.78-11.48-3.07-10.41-2.67-20.72,1.09-29.92.67-1.62,1.44-3.21,2.31-4.76,5.75-10.18,16.18-18.76,31.12-24.12,4.28-1.54,8.98-2.82,14.1-3.8l11-2.13-1.51-9.12c-.02-.15-.05-.29-.07-.44-1.89-11.86-.47-22.66,3.57-32.12,5.08-11.93,14.45-21.93,26.66-29.41,12.43-7.6,27.82-12.61,44.75-14.45,15.56-1.69,32.39-.72,49.39,3.33-2.59,2.05-4.76,4-6.57,5.89-3.32,3.49-5.44,6.86-6.56,10.15-1.58,4.65-1.15,8.85.73,12.74,1.64,3.4,4.32,6.31,7.66,8.94l.92.67c2.95,1.9,7,4.14,11.51,6.63,14.9,8.21,35.92,19.8,38.55,35.45l1.07,6.34,7.45,1.96c18.02,4.77,30.41,11.75,37.29,20.78,6.87,9.03,8.61,20.65,5.33,34.66l-2.11,8.98,10.82,2.62c6.39,1.55,12.29,3.66,17.63,6.24,2.31,17.9-2.76,34.18-13.83,42.02Z"/>
  <path class="cls-1" d="M666.52,404.38c-10.07-3.63-20.55-6.64-31.11-8.42-4.38-.74-8.76-1.41-13.14-2.03-28.95-4.09-58.09-5.75-87.29-6.48-4.39-.11-8.79-.2-13.19-.27-3.51-.06-7.02-.11-10.53-.15-3.09-.03-6.19-.06-9.28-.09-.05-.55-.09-1.1-.12-1.64-39.33,2.7-78.72,4.78-117.95,8.43-4.28.4-8.55,1.02-12.81,1.81-7.13,1.3-14.22,3.06-21.24,4.99-3.8,1.04-7.59,2.13-11.35,3.23-9.8,2.87-11.61,7.33-10.89,17.01,5.24,71.28,10.51,142.56,15.73,213.85.54,7.38,1.08,14.76,1.62,22.14.29,3.98.58,7.99.88,11.97.09,1.3.18,2.6.28,3.9.35,4.88.71,9.76,1.07,14.63,4.55,62.5,9.09,124.99,13.48,187.49.41,5.81,2.56,9.82,6.8,13.3,10.63,8.76,22.93,14.17,35.85,18.32,24.1,7.74,48.97,10.95,74.12,12.05,39.76,1.72,79.3.44,117.94-10.53,14.87-4.21,29.21-9.82,41-20.24,2.87-2.52,5.54-6.52,6.11-10.19,1.49-9.47,1.79-19.13,2.48-28.72,3.86-53.81,7.68-107.63,11.57-161.44.34-4.74.67-9.46,1.03-14.19.09-1.49.21-2.99.32-4.48.29-4.01.57-8.03.87-12.04.13-1.82.26-3.64.39-5.47,5.6-76.92,11.31-153.83,16.95-230.73.66-9.02-.94-12.89-9.59-16.01ZM358.21,410.69c.85-.21,1.7-.41,2.55-.61.85-.19,1.7-.38,2.55-.56,1.18-.25,2.37-.49,3.57-.7.54-.09,1.07-.19,1.61-.27,1.94-.31,3.89-.61,5.83-.9,1.91-.28,3.82-.56,5.73-.83.02-.01.05-.01.07-.01,1.9-.27,3.81-.53,5.71-.78,1.93-.26,3.86-.51,5.79-.74.05-.01.1-.02.14-.02,2.03-.25,4.06-.49,6.09-.72,1.86-.22,3.72-.42,5.57-.62.24-.03.49-.06.74-.08,1.72-.18,3.43-.36,5.14-.53.77-.08,1.53-.15,2.29-.22,1.62-.16,3.24-.31,4.85-.45.12-.01.25-.02.37-.03,1.46-.13,2.92-.26,4.38-.37,1.02-.09,2.04-.18,3.06-.25,1.28-.1,2.57-.2,3.85-.3,2.51-.18,5.02-.36,7.53-.51,1.97-.13,3.95-.25,5.92-.36,1.56-.09,3.12-.17,4.68-.25,5.19-.27,10.39-.49,15.59-.66,1.58-.05,3.17-.1,4.75-.14,2.09-.06,4.17-.11,6.26-.15,2.09-.04,4.17-.08,6.26-.11,4.17-.07,8.35-.1,12.52-.1h.01c2.43-.01,4.86,0,7.28.02,3.91.02,7.82.06,11.73.13,1.49.02,2.99.05,4.48.08,1.94.04,3.87.09,5.81.14h.01c3.17.08,6.34.17,9.5.28,3.18.1,6.35.22,9.52.35,31.47,1.31,62.86,4.9,94.24,8.06,8.92.9,17.65,3.92,26.46,5.97,0,1.04.04,2.07.06,3.12-11.06,2.34-22.01,5.43-33.18,6.9-77.78,10.26-155.72,10.04-233.68,2.34-13.98-1.39-27.8-4.61-41.66-7.18-3.12-.57-6.1-1.96-9.14-2.97-.03-.68-.06-1.37-.09-2.06,5.1-1.23,10.16-2.66,15.25-3.91ZM640.68,734.02c-3.09,42.53-6.72,85.03-8.86,127.59-.05,1.08-.15,2.12-.25,3.11-.67,5.9-2.39,10.51-5.41,14.26-2.59,3.22-6.16,5.8-10.86,8.03-20.8,9.82-42.79,14.47-65.35,16.93-15.47,1.68-30.93,2.6-46.39,2.68-19.96.1-39.92-1.18-59.84-3.99-21.44-3.01-42.36-7.96-61.4-19.13-6.18-3.62-9.38-8.14-9.87-15.78-.13-2.07-.28-4.13-.41-6.19-3.05-46.53-6.5-93.03-9.87-139.53-.8-10.91-1.6-21.83-2.4-32.75,94.96,14.33,189.27,14.3,284.18.03-1.09,14.91-2.19,29.83-3.27,44.74ZM660.91,457.02c-3.15,43.57-6.35,87.12-9.54,130.69-1.58,21.81-3.18,43.62-4.77,65.43-.31,4.1-.61,8.2-.91,12.3-.26,3.53-.52,7.05-.77,10.58-5.77,1.32-11.54,2.54-17.39,3.3-77.78,10.26-155.72,10.05-233.68,2.34-11.77-1.16-23.4-3.63-35.07-5.92-.24-3.38-.49-6.76-.75-10.14-.29-4.05-.59-8.08-.89-12.13-2.31-31.34-4.63-62.7-6.93-94.05-3.01-41.26-6-82.54-8.98-123.8-.13-1.86-.02-3.71-.02-4.2,107.45,18.3,213.98,18.27,321.39.02-.51,7.58-1.03,16.58-1.69,25.58Z"/>
  <path class="cls-2" d="M643.95,689.28c-1.09,14.91-2.19,29.83-3.27,44.74-3.09,42.53-6.72,85.03-8.86,127.59-.05,1.08-.15,2.12-.25,3.11-.67,5.9-2.39,10.51-5.41,14.26-2.59,3.22-6.16,5.8-10.86,8.03-20.8,9.82-42.79,14.47-65.35,16.93-15.47,1.68-30.93,2.6-46.39,2.68-19.96.1-39.92-1.18-59.84-3.99-21.44-3.01-42.36-7.96-61.4-19.13-6.18-3.62-9.38-8.14-9.87-15.78-.13-2.07-.28-4.13-.41-6.19-3.05-46.53-6.5-93.03-9.87-139.53-.8-10.91-1.6-21.83-2.4-32.75,94.96,14.33,189.27,14.3,284.18.03Z"/>
  <path class="cls-4" d="M660.71,417.57c-11.06,2.34-22.01,5.43-33.18,6.9-77.78,10.26-155.72,10.04-233.68,2.34-13.98-1.39-27.8-4.61-41.66-7.18-3.12-.57-6.1-1.96-9.14-2.97-.03-.68-.06-1.37-.09-2.06,5.1-1.23,10.16-2.66,15.25-3.91.85-.21,1.7-.41,2.55-.61.85-.19,1.7-.38,2.55-.56,1.18-.25,2.37-.49,3.57-.7.54-.09,1.07-.19,1.61-.27,1.94-.31,3.89-.61,5.83-.9,1.91-.28,3.82-.56,5.73-.83.02-.01.05-.01.07-.01,1.9-.27,3.81-.53,5.71-.78,1.93-.26,3.86-.51,5.79-.74.05-.01.1-.02.14-.02,2.03-.25,4.06-.49,6.09-.72,1.86-.22,3.72-.42,5.57-.62.24-.03.49-.06.74-.08,1.72-.18,3.43-.36,5.14-.53.77-.08,1.53-.15,2.29-.22,1.62-.16,3.24-.31,4.85-.45.12-.01.25-.02.37-.03,1.46-.13,2.92-.26,4.38-.37,1.02-.09,2.04-.18,3.06-.25,1.28-.1,2.57-.2,3.85-.3,2.51-.18,5.02-.36,7.53-.51,1.97-.13,3.95-.25,5.92-.36,1.56-.09,3.12-.17,4.68-.25,5.19-.27,10.39-.49,15.59-.66,1.58-.05,3.17-.1,4.75-.14,2.09-.06,4.17-.11,6.26-.15,2.09-.04,4.17-.08,6.26-.11,4.17-.07,8.35-.1,12.52-.1h.01c2.43-.01,4.86,0,7.28.02,3.91.02,7.82.06,11.73.13,1.49.02,2.99.05,4.48.08,1.94.04,3.87.09,5.81.14h.01c3.17.08,6.34.17,9.5.28,3.18.1,6.35.22,9.52.35,31.47,1.31,62.86,4.9,94.24,8.06,8.92.9,17.65,3.92,26.46,5.97.01,1.04.04,2.07.06,3.12Z"/>
  <path class="cls-5" d="M662.6,431.44c-.51,7.58-1.03,16.58-1.69,25.58-3.15,43.57-6.35,87.12-9.54,130.69-1.58,21.81-3.18,43.62-4.77,65.43-.31,4.1-.61,8.2-.91,12.3-.26,3.53-.52,7.05-.77,10.58-5.77,1.32-11.54,2.54-17.39,3.3-77.78,10.26-155.72,10.05-233.68,2.34-11.77-1.16-23.4-3.63-35.07-5.92-.24-3.38-.49-6.76-.75-10.14-.29-4.05-.59-8.08-.89-12.13-2.31-31.34-4.63-62.7-6.93-94.05-3.01-41.26-6-82.54-8.98-123.8-.13-1.86-.02-3.71-.02-4.2,107.45,18.3,213.98,18.27,321.39.02Z"/>
</svg>