<?xml version="1.0" encoding="UTF-8"?>
<svg id="Layer_4" data-name="Layer 4" xmlns="http://www.w3.org/2000/svg" viewBox="0 0 1000 1000">
  <defs>
    <style>
      .cls-1 {
        fill: #000;
      }

      .cls-1, .cls-2, .cls-3, .cls-4, .cls-5, .cls-6 {
        stroke-width: 0px;
      }

      .cls-2 {
        fill: #fffcf8;
      }

      .cls-3 {
        fill: #fff7e6;
      }

      .cls-4 {
        fill: #faedcd;
      }

      .cls-5 {
        fill: #dda15e;
      }

      .cls-6 {
        fill: #fff;
      }
    </style>
  </defs>
  <path class="cls-1" d="M587.92,137.17c-1.99-.12-3.99-.19-6-.23.58-.01,1.16-.01,1.74-.01,1.39,0,2.77.02,4.15.06.04.06.07.12.11.18Z"/>
  <path class="cls-1" d="M664.66,404.4c-10.07-3.63-20.55-6.64-31.11-8.42-4.38-.74-8.76-1.41-13.14-2.03-28.95-4.09-58.09-5.75-87.29-6.48-4.39-.11-8.79-.2-13.19-.27-3.51-.06-7.02-.11-10.53-.15-3.09-.03-6.19-.06-9.28-.09-.05-.55-.09-1.1-.12-1.64-39.33,2.7-78.72,4.78-117.95,8.43-4.28.4-8.55,1.02-12.81,1.81-7.13,1.3-14.22,3.06-21.24,4.99-3.8,1.04-7.59,2.13-11.35,3.23-9.8,2.87-11.61,7.33-10.89,17.01,5.24,71.28,10.51,142.56,15.73,213.85.54,7.38,1.08,14.76,1.62,22.14.29,3.98.58,7.99.88,11.97.09,1.3.18,2.6.28,3.9.35,4.88.71,9.76,1.07,14.63,4.55,62.5,9.09,124.99,13.48,187.49.41,5.81,2.56,9.82,6.8,13.3,10.63,8.76,22.93,14.17,35.85,18.32,24.1,7.74,48.97,10.95,74.12,12.05,39.76,1.72,79.3.44,117.94-10.53,14.87-4.21,29.21-9.82,41-20.24,2.87-2.52,5.54-6.52,6.11-10.19,1.49-9.47,1.79-19.13,2.48-28.72,3.86-53.81,7.68-107.63,11.57-161.44.34-4.74.67-9.46,1.03-14.19.09-1.49.21-2.99.32-4.48.29-4.01.57-8.03.87-12.04.13-1.82.26-3.64.39-5.47,5.6-76.92,11.31-153.83,16.95-230.73.66-9.02-.94-12.89-9.59-16.01ZM356.35,410.71c.85-.21,1.7-.41,2.55-.61.85-.19,1.7-.38,2.55-.56,1.18-.25,2.37-.49,3.57-.7.54-.09,1.07-.19,1.61-.27,1.94-.31,3.89-.61,5.83-.9,1.91-.28,3.82-.56,5.73-.83.02-.01.05-.01.07-.01,1.9-.27,3.81-.53,5.71-.78,1.93-.26,3.86-.51,5.79-.74.05-.01.1-.02.14-.02,2.03-.25,4.06-.49,6.09-.72,1.86-.22,3.72-.42,5.57-.62.24-.03.49-.06.74-.08,1.72-.18,3.43-.36,5.14-.53.77-.08,1.53-.15,2.29-.22,1.62-.16,3.24-.31,4.85-.45.12-.01.25-.02.37-.03,1.46-.13,2.92-.26,4.38-.37,1.02-.09,2.04-.18,3.06-.25,1.28-.1,2.57-.2,3.85-.3,2.51-.18,5.02-.36,7.53-.51,1.97-.13,3.95-.25,5.92-.36,1.56-.09,3.12-.17,4.68-.25,5.19-.27,10.39-.49,15.59-.66,1.58-.05,3.17-.1,4.75-.14,2.09-.06,4.17-.11,6.26-.15,2.09-.04,4.17-.08,6.26-.11,4.17-.07,8.35-.1,12.52-.1h.01c2.43-.01,4.86,0,7.28.02,3.91.02,7.82.06,11.73.13,1.49.02,2.99.05,4.48.08,1.94.04,3.87.09,5.81.14h.01c3.17.08,6.34.17,9.5.28,3.18.1,6.35.22,9.52.35,31.47,1.31,62.86,4.9,94.24,8.06,8.92.9,17.65,3.92,26.46,5.97.01,1.04.04,2.07.06,3.12-11.06,2.34-22.01,5.43-33.18,6.9-77.78,10.26-155.72,10.04-233.68,2.34-13.98-1.39-27.8-4.61-41.66-7.18-3.12-.57-6.1-1.96-9.14-2.97-.03-.68-.06-1.37-.09-2.06,5.1-1.23,10.16-2.66,15.25-3.91ZM638.82,734.04c-3.09,42.53-6.72,85.03-8.86,127.59-.05,1.08-.15,2.12-.25,3.11-.67,5.9-2.39,10.51-5.41,14.26-2.59,3.22-6.16,5.8-10.86,8.03-20.8,9.82-42.79,14.47-65.35,16.93-15.47,1.68-30.93,2.6-46.39,2.68-19.96.1-39.92-1.18-59.84-3.99-21.44-3.01-42.36-7.96-61.4-19.13-6.18-3.62-9.38-8.14-9.87-15.78-.13-2.07-.28-4.13-.41-6.19-3.05-46.53-6.5-93.03-9.87-139.53-.8-10.91-1.6-21.83-2.4-32.75,94.96,14.33,189.27,14.3,284.18.03-1.09,14.91-2.19,29.83-3.27,44.74ZM659.05,457.04c-3.15,43.57-6.35,87.12-9.54,130.69-1.58,21.81-3.18,43.62-4.77,65.43-.31,4.1-.61,8.2-.91,12.3-.26,3.53-.52,7.05-.77,10.58-5.77,1.32-11.54,2.54-17.39,3.3-77.78,10.26-155.72,10.05-233.68,2.34-11.77-1.16-23.4-3.63-35.07-5.92-.24-3.38-.49-6.76-.75-10.14-.29-4.05-.59-8.08-.89-12.13-2.31-31.34-4.63-62.7-6.93-94.05-3.01-41.26-6-82.54-8.98-123.8-.13-1.86-.02-3.71-.02-4.2,107.45,18.3,213.98,18.27,321.39.02-.51,7.58-1.03,16.58-1.69,25.58Z"/>
  <path class="cls-5" d="M642.09,689.3c-1.09,14.91-2.19,29.83-3.27,44.74-3.09,42.53-6.72,85.03-8.86,127.59-.05,1.08-.15,2.12-.25,3.11-.67,5.9-2.39,10.51-5.41,14.26-2.59,3.22-6.16,5.8-10.86,8.03-20.8,9.82-42.79,14.47-65.35,16.93-15.47,1.68-30.93,2.6-46.39,2.68-19.96.1-39.92-1.18-59.84-3.99-21.44-3.01-42.36-7.96-61.4-19.13-6.18-3.62-9.38-8.14-9.87-15.78-.13-2.07-.28-4.13-.41-6.19-3.05-46.53-6.5-93.03-9.87-139.53-.8-10.91-1.6-21.83-2.4-32.75,94.96,14.33,189.27,14.3,284.18.03Z"/>
  <path class="cls-3" d="M658.85,417.59c-11.06,2.34-22.01,5.43-33.18,6.9-77.78,10.26-155.72,10.04-233.68,2.34-13.98-1.39-27.8-4.61-41.66-7.18-3.12-.57-6.1-1.96-9.14-2.97-.03-.68-.06-1.37-.09-2.06,5.1-1.23,10.16-2.66,15.25-3.91.85-.21,1.7-.41,2.55-.61.85-.19,1.7-.38,2.55-.56,1.18-.25,2.37-.49,3.57-.7.54-.09,1.07-.19,1.61-.27,1.94-.31,3.89-.61,5.83-.9,1.91-.28,3.82-.56,5.73-.83.02-.01.05-.01.07-.01,1.9-.27,3.81-.53,5.71-.78,1.93-.26,3.86-.51,5.79-.74.05-.01.1-.02.14-.02,2.03-.25,4.06-.49,6.09-.72,1.86-.22,3.72-.42,5.57-.62.24-.03.49-.06.74-.08,1.72-.18,3.43-.36,5.14-.53.77-.08,1.53-.15,2.29-.22,1.62-.16,3.24-.31,4.85-.45.12-.01.25-.02.37-.03,1.46-.13,2.92-.26,4.38-.37,1.02-.09,2.04-.18,3.06-.25,1.28-.1,2.57-.2,3.85-.3,2.51-.18,5.02-.36,7.53-.51,1.97-.13,3.95-.25,5.92-.36,1.56-.09,3.12-.17,4.68-.25,5.19-.27,10.39-.49,15.59-.66,1.58-.05,3.17-.1,4.75-.14,2.09-.06,4.17-.11,6.26-.15,2.09-.04,4.17-.08,6.26-.11,4.17-.07,8.35-.1,12.52-.1h.01c2.43-.01,4.86,0,7.28.02,3.91.02,7.82.06,11.73.13,1.49.02,2.99.05,4.48.08,1.94.04,3.87.09,5.81.14h.01c3.17.08,6.34.17,9.5.28,3.18.1,6.35.22,9.52.35,31.47,1.31,62.86,4.9,94.24,8.06,8.92.9,17.65,3.92,26.46,5.97.01,1.04.04,2.07.06,3.12Z"/>
  <path class="cls-4" d="M660.74,431.46c-.51,7.58-1.03,16.58-1.69,25.58-3.15,43.57-6.35,87.12-9.54,130.69-1.58,21.81-3.18,43.62-4.77,65.43-.31,4.1-.61,8.2-.91,12.3-.26,3.53-.52,7.05-.77,10.58-5.77,1.32-11.54,2.54-17.39,3.3-77.78,10.26-155.72,10.05-233.68,2.34-11.77-1.16-23.4-3.63-35.07-5.92-.24-3.38-.49-6.76-.75-10.14-.29-4.05-.59-8.08-.89-12.13-2.31-31.34-4.63-62.7-6.93-94.05-3.01-41.26-6-82.54-8.98-123.8-.13-1.86-.02-3.71-.02-4.2,107.45,18.3,213.98,18.27,321.39.02Z"/>
  <path class="cls-1" d="M705.66,319.21c8.76-18.4,13.67-38.98,13.67-60.68,0-8.8-.81-17.41-2.36-25.76-1.32-7.2-3.19-14.2-5.57-20.97-15.9-45.37-54.29-80.25-101.73-91.22-.14-.32-.28-.64-.43-.95-18.84-40.52-59.94-68.68-107.48-68.68-60.1,0-109.87,44.97-117.45,103.02-1.39.49-2.77,1.01-4.14,1.55-48.11,18.88-83.46,63.36-89.2,116.59-.54,5.02-.82,10.12-.82,15.28,0,1.77.03,3.53.1,5.29.32,8.65,1.42,17.1,3.23,25.29-11.39,3.52-13.51,9.01-12.64,20.55,6.55,87.34,13.12,174.68,19.62,262.03,7.31,98.08,14.6,196.14,21.61,294.23.52,7.11,3.22,12.02,8.49,16.29,3.79,3.06,7.74,5.79,11.83,8.25,4.17,2.5,8.49,4.71,12.91,6.7,6.47,2.91,13.15,5.35,19.98,7.51,30.07,9.47,61.1,13.42,92.48,14.75,49.61,2.11,98.93.55,147.15-12.9,9.36-2.61,18.55-5.65,27.25-9.67,4.46-2.06,8.79-4.36,12.95-7,3.79-2.42,7.45-5.11,10.93-8.12,3.58-3.11,6.92-8.01,7.63-12.5,1.85-11.61,2.23-23.44,3.1-35.18,5.9-80.71,11.71-161.44,17.69-242.14,6.98-94.25,14.1-188.48,21.14-282.72.78-10.3-.93-15.13-9.94-18.84ZM611.96,137.67c1.13.32,2.25.65,3.36,1.01.68.21,1.37.43,2.05.66,2.21.74,4.39,1.53,6.55,2.39.46.18.92.37,1.38.56.68.27,1.36.56,2.03.86,1.24.52,2.46,1.08,3.68,1.65.76.36,1.52.72,2.28,1.1,3.13,1.55,6.19,3.23,9.17,5.03.82.49,1.62.99,2.42,1.5.19.12.37.24.56.35.77.49,1.52.99,2.27,1.5.82.55,1.63,1.1,2.43,1.68,2.3,1.63,4.55,3.33,6.74,5.12.52.41,1.03.84,1.54,1.27.64.53,1.28,1.08,1.9,1.63,3.58,3.12,6.97,6.45,10.17,9.96.33.35.64.7.95,1.05.5.56,1,1.12,1.48,1.69.48.56.97,1.13,1.44,1.71.97,1.15,1.9,2.32,2.81,3.5,1.44,1.86,2.83,3.76,4.16,5.71.23.33.47.67.7,1.01.1.15.2.31.31.47.33.5.66,1,.98,1.51.82,1.25,1.6,2.52,2.36,3.8.39.64.77,1.28,1.13,1.93.39.67.77,1.35,1.14,2.03.19.34.37.68.55,1.02.55,1.03,1.09,2.06,1.61,3.1.33.65.66,1.31.97,1.98.09.19.19.39.29.6.33.72.66,1.44.99,2.16.24.53.48,1.06.71,1.6-7.87-.02-14.37,2.02-19.59,6.08-11.29,8.76-12.31,23.45-13.2,36.42-.84,12.02-1.75,20.1-6.65,22.82-3.69,2.05-10.01,1.95-16.48-.25-7.87-2.67-14.5-7.96-16.89-13.46-3.25-7.48,1.22-16.73,5.95-26.53,5.65-11.7,12.06-24.96,4.5-37.53-7.9-13.14-28.77-19.51-45.56-13.9-17.11,5.71-22.74,23.18-26.64,41.84-.41-.83-.84-1.65-1.27-2.48-.43-.82-.87-1.64-1.32-2.45-.28-.52-.57-1.04-.87-1.56-.16-.29-.33-.58-.49-.86-.31-.54-.63-1.08-.95-1.62-.62-1.05-1.26-2.1-1.92-3.14-.49-.78-.99-1.56-1.5-2.33-1.01-1.55-2.05-3.07-3.13-4.57-1.07-1.51-2.17-2.99-3.3-4.44-.28-.37-.56-.73-.85-1.09-.28-.36-.57-.72-.86-1.08-.58-.72-1.17-1.43-1.76-2.14-.59-.7-1.19-1.4-1.8-2.1-.37-.44-.75-.87-1.14-1.29-.41-.47-.83-.94-1.26-1.4-.31-.34-.62-.68-.95-1.02-1.19-1.28-2.41-2.54-3.67-3.78-.45-.46-.91-.91-1.38-1.35-.22-.22-.45-.44-.67-.64-.5-.49-1.02-.96-1.53-1.44-.06-.07-.11-.12-.17-.15-.51-.49-1.02-.95-1.54-1.41-.12-.11-.24-.23-.37-.34-.61-.54-1.22-1.08-1.84-1.6-.02-.03-.04-.05-.07-.06-.38-.34-.77-.67-1.16-.99-4.09-3.44-8.39-6.66-12.86-9.62-.3-.21-.6-.41-.91-.6-.96-.64-1.94-1.26-2.93-1.86-.62-.39-1.24-.77-1.87-1.14-.33-.2-.67-.4-1.01-.6-.66-.39-1.33-.78-2-1.15-.43-.25-.86-.49-1.3-.72-.79-.44-1.58-.87-2.38-1.29.5-.42,1.01-.83,1.52-1.24,21.54-17.41,48.94-27.82,78.73-27.82.68,0,1.36.01,2.04.02h.02c4.79.07,9.53.43,14.18,1.02,6.14.8,12.15,2.04,17.99,3.7ZM342.81,275.02c-.3-8.5-.62-17.29,5.14-24.31,8.23-10,23.67-12.64,27.48-9.64,1.81,1.43,1.52,7.7,1.29,12.74-.44,9.55-.99,21.44,8.63,29.2,10.87,8.76,28.39,6.37,39.35-.33,16.99-10.4,19.63-30.62,21.76-46.87,1.26-9.71,2.7-20.73,6.98-22.49,4.92-2.04,16.16,2.74,20.91,10.41,5.05,8.18,1.05,19.12-3.19,30.7-4.68,12.79-9.99,27.28-1.61,39.63,6.89,10.14,21.74,15.54,37.75,15.54,11.66,0,23.93-2.86,34.21-8.81,6.61-3.84,11.76-8.76,15.84-14.39.01.33.01.66.01.99,0,3.65-.16,7.26-.47,10.83-.45,5.37-1.25,10.64-2.37,15.79-2.97,13.69-8.17,26.56-15.21,38.19-3.25.1-6.5.18-9.74.25-3.22.08-6.44.14-9.66.19-2.71.04-5.41.07-8.12.09-.78.01-1.55.02-2.32.01-2.49.03-4.98.04-7.48.04s-4.81,0-7.21-.02c-.04,0-.07,0-.11,0-.07,0-.14,0-.21,0-.34,0-.67,0-1.01-.01-1.47,0-2.93-.01-4.4-.03-3.82-.03-7.64-.08-11.46-.15-1.85-.03-3.71-.07-5.56-.11h-.01s-.01.01-.03,0c-.01.01-.02.01-.03,0,0,0-.01.01-.02,0-.03.01-.05.01-.08,0-3.25-.06-6.5-.15-9.75-.25-2.82-.08-5.64-.17-8.46-.27-4.15-.14-8.3-.3-12.46-.49-1.07-.05-2.13-.1-3.19-.15-2.1-.09-4.2-.19-6.31-.3-2.32-.12-4.64-.24-6.97-.37-2.48-.14-4.97-.28-7.46-.44-2.3-.14-4.61-.29-6.91-.44-2.08-.13-4.15-.27-6.23-.42h-.04c-2.11-.14-4.21-.3-6.32-.46-2.08-.15-4.15-.31-6.22-.48-1.25-.1-2.5-.19-3.75-.3-.64-.04-1.27-.09-1.91-.15-1.12-.09-2.24-.18-3.37-.28-.26-.02-.53-.04-.8-.07-1.67-.14-3.33-.29-5-.44-1.94-.17-3.88-.34-5.82-.52-2.47-.23-4.95-.46-7.42-.7-.98-.1-1.95-.2-2.93-.31-.43-.04-.86-.09-1.29-.15-1.59-.18-3.18-.38-4.77-.6-.39-.06-.79-.12-1.19-.17-.51-.07-1.01-.14-1.51-.22-1.03-.15-2.05-.31-3.08-.47-.21-.03-.42-.06-.63-.1-1.08-.17-2.17-.35-3.25-.53-.6-.1-1.2-.2-1.8-.31-3.81-.65-7.62-1.36-11.42-2.1-1.58-.3-3.17-.61-4.75-.91-3.33-.64-6.66-1.29-9.99-1.92-1.5-3.39-2.86-6.86-4.07-10.41-1.55-4.58-2.85-9.28-3.88-14.08-.18-.84-.35-1.68-.51-2.53-.16-.84-.32-1.69-.46-2.54-.08-.44-.15-.89-.22-1.34-.08-.48-.16-.97-.22-1.46-.26-1.69-.47-3.38-.65-5.09,12.97,4.91,22.25,4.56,28.78-.67,7.86-6.29,7.5-16.23,7.18-25ZM500.01,66.97c36.44.77,68.27,20.66,85.8,50.02.04.06.07.12.11.18-1.99-.12-3.99-.19-6-.23-.04.01-.09.01-.13,0-.69,0-1.37-.01-2.06-.01-37.15,0-71,14.38-96.28,37.86-15.47-5.82-32.21-9-49.69-9-10.44,0-20.63,1.14-30.44,3.29,9.35-46.24,49.92-81.29,98.69-82.11ZM306.64,276.25c.05-.54.1-1.08.16-1.62.05-.58.11-1.15.18-1.72.06-.53.13-1.07.2-1.6.18-1.42.38-2.83.62-4.23.05-.3.1-.6.15-.89.24-1.43.5-2.85.8-4.26.13-.68.28-1.35.43-2.01.15-.66.3-1.32.46-1.97.18-.77.38-1.54.58-2.3.11-.43.22-.86.34-1.28.1-.4.22-.8.33-1.19.41-1.45.85-2.89,1.31-4.32.18-.58.38-1.17.58-1.75.06-.19.12-.37.19-.56.22-.65.45-1.3.69-1.94.14-.41.29-.81.45-1.21.16-.43.32-.86.48-1.29.3-.77.61-1.55.93-2.31.19-.48.39-.96.59-1.43.19-.42.37-.84.55-1.25.21-.49.43-.98.65-1.47.87-1.91,1.78-3.79,2.74-5.64.35-.69.71-1.37,1.08-2.06.92-1.7,1.87-3.37,2.86-5.01.22-.38.45-.75.68-1.12,1.71-2.79,3.53-5.5,5.45-8.14.21-.29.42-.58.63-.86.2-.28.41-.56.63-.84.21-.28.42-.56.64-.84.42-.56.85-1.12,1.3-1.67,3.05-3.86,6.33-7.53,9.82-11,.25-.25.5-.49.75-.74.75-.74,1.52-1.47,2.29-2.19.51-.48,1.03-.96,1.55-1.42.52-.48,1.05-.94,1.58-1.4.53-.46,1.06-.92,1.6-1.37.59-.51,1.19-1,1.8-1.49.49-.4.98-.79,1.47-1.18.52-.4,1.04-.8,1.56-1.2.59-.46,1.19-.91,1.8-1.35.49-.36.98-.72,1.48-1.08.65-.46,1.31-.92,1.97-1.37.58-.4,1.16-.8,1.75-1.18.59-.39,1.18-.77,1.78-1.15.64-.42,1.29-.82,1.95-1.22.12-.08.25-.15.38-.23.42-.26.85-.52,1.28-.76.71-.43,1.43-.84,2.15-1.25.51-.29,1.02-.57,1.54-.85.62-.34,1.24-.68,1.87-1,.79-.42,1.57-.82,2.37-1.21.31-.16.62-.31.93-.46.8-.39,1.61-.78,2.43-1.15,5.14-2.36,10.47-4.39,15.96-6.05,11.52-3.5,23.73-5.38,36.38-5.38s25.7,2.01,37.57,5.74c5.45,1.71,10.74,3.78,15.84,6.19.96.45,1.92.92,2.87,1.4.88.44,1.74.89,2.6,1.35,1.16.62,2.31,1.25,3.45,1.91.43.25.87.5,1.3.76.43.25.87.51,1.29.77,1.27.76,2.52,1.55,3.75,2.36.38.24.75.49,1.12.74,2.38,1.6,4.7,3.27,6.97,5.03.69.53,1.38,1.08,2.07,1.64.43.35.87.7,1.29,1.06.43.35.85.7,1.27,1.07.24.19.47.4.71.61.36.3.71.61,1.06.92.48.43.96.85,1.43,1.29.38.35.76.7,1.14,1.05,2.68,2.5,5.24,5.12,7.69,7.85.63.69,1.25,1.4,1.86,2.11.63.74,1.27,1.49,1.89,2.26.46.56.92,1.12,1.36,1.69.39.49.78.98,1.16,1.48.66.86,1.31,1.72,1.94,2.6.02.02.04.05.05.07.66.9,1.3,1.8,1.93,2.72,2.16,3.16,4.19,6.41,6.07,9.77.36.64.71,1.29,1.06,1.94.48.9.96,1.81,1.42,2.73.12.24.24.48.36.72.13.24.25.48.36.73.31.63.61,1.26.91,1.89.02.03.03.06.04.08.28.61.56,1.22.83,1.83.29.64.58,1.29.85,1.93.28.65.55,1.3.82,1.95.47,1.14.92,2.3,1.35,3.46.16.42.32.85.47,1.28.21.57.41,1.15.61,1.73.17.49.34.98.5,1.48.14.42.28.84.42,1.27.38,1.2.75,2.4,1.09,3.61h0c-3.6,13.77-8.99,25.95-20.04,32.35-16.8,9.73-42.12,7.47-48.04-1.27-3.2-4.71.11-13.75,3.61-23.32,5.01-13.7,11.25-30.74,1.59-46.35-8.24-13.34-27.97-23.84-43.09-17.59-13.9,5.75-15.96,21.54-17.95,36.8-1.8,13.74-3.65,27.94-13.31,33.84-6.63,4.06-15.47,4.23-18.65,1.67-2.52-2.03-2.23-8.29-1.95-14.35.42-9.15.95-20.55-8.13-27.71-12.98-10.23-38.99-4.11-52.52,12.36-10.1,12.28-9.59,26.21-9.22,36.38.13,3.58.32,8.95-.49,10.32-.43.2-4.44,1.61-18.02-5.13.08-1.54.18-3.08.32-4.61ZM696.64,382.95c-3.94,53.37-7.91,106.75-11.89,160.12-4.44,59.76-8.92,119.51-13.35,179.28-3.86,52.1-8.4,104.17-11.05,156.33-.31,6.16-1.42,11.26-3.47,15.58-2.7,5.72-7.05,10.05-13.41,13.64-1.19.65-2.43,1.28-3.74,1.89-25.93,12.03-53.37,17.74-81.52,20.75-44.21,4.71-88.44,4.51-132.52-1.6-24.91-3.45-49.28-8.94-71.7-20.74-1.64-.86-3.27-1.76-4.91-2.69-3.49-2.02-6.22-4.25-8.21-6.96-2.42-3.29-3.77-7.27-4.11-12.39-3.93-59.54-8.41-119.05-12.82-178.55-4.92-66.4-9.96-132.8-14.91-199.18-3.78-50.58-7.49-101.15-11.22-151.71-.16-2.27-.01-4.54-.01-5.14,2.83.47,5.65.93,8.47,1.38,6.79,1.09,13.57,2.12,20.35,3.09,54.05,7.75,107.92,11.84,161.79,12.28,9.4.09,18.8.06,28.2-.09,3.8-.06,7.6-.13,11.39-.23,6.86-.17,13.72-.4,20.58-.69,35.11-1.48,70.24-4.5,105.43-9.08,9.31-1.21,18.62-2.52,27.94-3.96,5.6-.85,11.2-1.74,16.8-2.68-.63,9.29-1.3,20.32-2.11,31.35ZM690.35,314.11c-2.26,4.58-4.8,8.99-7.59,13.23-2.84,4.32-5.94,8.46-9.28,12.39-1.92.42-3.84.82-5.75,1.2-.96.19-1.92.37-2.88.55-.96.18-1.92.35-2.88.52-.87.15-1.73.29-2.6.43-1.46.23-2.91.44-4.37.63-4.04.52-8.07,1.02-12.11,1.5-1.69.2-3.38.4-5.08.59-2.72.31-5.43.61-8.15.9-4.46.48-8.92.93-13.38,1.35-2.51.24-5.02.47-7.53.69-1.04.09-2.07.18-3.11.27-1.23.11-2.46.21-3.69.31-2.4.2-4.8.39-7.2.57-3.12.25-6.24.47-9.36.68-1.38.1-2.78.19-4.17.28-1.75.12-3.5.23-5.25.33-1.94.12-3.88.23-5.83.34-2.02.11-4.04.22-6.06.32-2.02.11-4.05.2-6.07.29,5.8-11.38,10.1-23.64,12.65-36.52,1.05-5.26,1.8-10.62,2.24-16.07.3-3.79.46-7.63.46-11.5,0-8.52-.76-16.87-2.21-24.98-.17-.91-.34-1.83-.52-2.73-.15-.76-.31-1.51-.47-2.27-.03-.15-.06-.29-.09-.43h0c1.71-6.66,3.02-13.43,4.27-19.95,3.52-18.34,6.56-34.17,16.51-37.49,9.15-3.06,21.29.86,24.44,6.1,2.36,3.93-.56,10.64-5.29,20.42-5.7,11.8-12.79,26.48-6.26,41.52,4.46,10.26,14.78,18.99,27.62,23.35,11.47,3.89,22.77,3.51,31.01-1.06,13.81-7.66,14.9-23.42,15.86-37.32.67-9.64,1.36-19.62,6.29-23.44,2.04-1.59,6.31-3.25,14.89-1.78.64,2.5,1.2,5.03,1.69,7.58.17.85.32,1.7.46,2.56.15.86.29,1.71.41,2.58.13.86.25,1.72.36,2.59.1.8.2,1.6.28,2.4.1.94.19,1.89.27,2.84.08.87.14,1.75.2,2.63.12,1.91.2,3.83.22,5.76.02.75.03,1.5.03,2.26,0,19.94-4.67,38.82-12.98,55.58Z"/>
  <path class="cls-6" d="M585.92,117.17c-1.99-.12-3.99-.19-6-.23.58-.01,1.16-.01,1.74-.01,1.39,0,2.77.02,4.15.06.04.06.07.12.11.18Z"/>
  <path class="cls-3" d="M703.33,258.53c0,19.94-4.67,38.82-12.98,55.58-2.26,4.58-4.8,8.99-7.59,13.23-2.84,4.32-5.94,8.46-9.28,12.39-1.92.42-3.84.82-5.75,1.2-.96.19-1.92.37-2.88.55-.96.18-1.92.35-2.88.52-.87.15-1.73.29-2.6.43-1.46.23-2.91.44-4.37.63-4.04.52-8.07,1.02-12.11,1.5-1.69.2-3.38.4-5.08.59-2.72.31-5.43.61-8.15.9-4.46.48-8.92.93-13.38,1.35-2.51.24-5.02.47-7.53.69-1.04.09-2.07.18-3.11.27-1.23.11-2.46.21-3.69.31-2.4.2-4.8.39-7.2.57-3.12.25-6.24.47-9.36.68-1.38.1-2.78.19-4.17.28-1.75.12-3.5.23-5.25.33-1.94.12-3.88.23-5.83.34-2.02.11-4.04.22-6.06.32-2.02.11-4.05.2-6.07.29,5.8-11.38,10.1-23.64,12.65-36.52,1.05-5.26,1.8-10.62,2.24-16.07.3-3.79.46-7.63.46-11.5,0-8.52-.76-16.87-2.21-24.98-.16-.91-.33-1.82-.52-2.73-.15-.76-.3-1.52-.47-2.27-.03-.15-.06-.29-.09-.43h0c1.71-6.66,3.02-13.43,4.27-19.95,3.52-18.34,6.56-34.17,16.51-37.49,9.15-3.06,21.29.86,24.44,6.1,2.36,3.93-.56,10.64-5.29,20.42-5.7,11.8-12.79,26.48-6.26,41.52,4.46,10.26,14.78,18.99,27.62,23.35,11.47,3.89,22.77,3.51,31.01-1.06,13.81-7.66,14.9-23.42,15.86-37.32.67-9.64,1.36-19.62,6.29-23.44,2.04-1.59,6.31-3.25,14.89-1.78.64,2.5,1.2,5.03,1.69,7.58.17.85.32,1.7.46,2.56.15.86.29,1.71.41,2.58.13.86.25,1.72.36,2.59.1.8.2,1.6.28,2.4.1.94.19,1.89.27,2.84.08.87.14,1.75.2,2.63.12,1.91.2,3.83.22,5.76.02.75.03,1.5.03,2.26Z"/>
  <g>
    <path class="cls-2" d="M585.81,116.99c-1.38-.04-2.76-.06-4.15-.06-.58,0-1.16,0-1.74.01-.04.01-.09.01-.13,0-.69,0-1.37-.01-2.06-.01-37.15,0-71,14.38-96.28,37.86-15.47-5.82-32.21-9-49.69-9-10.44,0-20.63,1.14-30.44,3.29,9.35-46.24,49.92-81.29,98.69-82.11,36.44.77,68.27,20.66,85.8,50.02Z"/>
    <path class="cls-2" d="M693.07,208.81c-7.87-.02-14.37,2.02-19.59,6.08-11.29,8.76-12.31,23.45-13.2,36.42-.84,12.02-1.75,20.1-6.65,22.82-3.69,2.05-10.01,1.95-16.48-.25-7.87-2.67-14.5-7.96-16.89-13.46-3.25-7.48,1.22-16.73,5.95-26.53,5.65-11.7,12.06-24.96,4.5-37.53-7.9-13.14-28.77-19.51-45.56-13.9-17.11,5.71-22.74,23.18-26.64,41.84-.41-.83-.84-1.65-1.27-2.48-.43-.82-.87-1.64-1.32-2.45-.28-.52-.57-1.04-.87-1.56-.16-.29-.33-.58-.49-.86-.31-.54-.63-1.08-.95-1.62-.62-1.05-1.26-2.1-1.92-3.14-.49-.78-.99-1.56-1.5-2.33-1.01-1.55-2.05-3.07-3.13-4.57-1.07-1.51-2.17-2.99-3.3-4.44-.28-.37-.56-.73-.85-1.09-.28-.36-.57-.72-.86-1.08-.58-.72-1.16-1.43-1.76-2.14-.59-.7-1.19-1.4-1.8-2.1-.37-.44-.75-.87-1.14-1.29-.41-.47-.83-.94-1.26-1.4-.31-.34-.62-.68-.95-1.02-1.19-1.28-2.41-2.54-3.67-3.78-.45-.46-.91-.91-1.38-1.35-.22-.22-.45-.44-.67-.64-.51-.5-1.02-.98-1.53-1.44-.06-.07-.11-.12-.17-.15-.51-.49-1.02-.95-1.54-1.41-.12-.11-.24-.23-.37-.34-.61-.54-1.22-1.08-1.84-1.6-.02-.03-.04-.05-.07-.06-.38-.34-.77-.67-1.16-.99-4.09-3.44-8.39-6.66-12.86-9.62-.3-.21-.6-.41-.91-.6-.96-.64-1.94-1.26-2.93-1.86-.62-.39-1.24-.77-1.87-1.14-.33-.2-.67-.4-1.01-.6-.66-.39-1.33-.78-2-1.15-.43-.25-.86-.49-1.3-.72-.79-.44-1.58-.87-2.38-1.29.5-.42,1.01-.83,1.52-1.24,21.54-17.41,48.94-27.82,78.73-27.82.68,0,1.36.01,2.04.02h.02c4.79.07,9.53.43,14.18,1.02,6.14.8,12.15,2.04,17.99,3.7,1.13.32,2.25.65,3.36,1.01.68.21,1.37.43,2.05.66,2.21.74,4.39,1.53,6.55,2.39.46.18.92.37,1.38.56.68.27,1.36.56,2.03.86,1.24.52,2.46,1.08,3.68,1.65.76.36,1.52.72,2.28,1.1,3.13,1.55,6.19,3.23,9.17,5.03.81.49,1.62.99,2.42,1.5.19.12.37.24.56.35.76.5,1.52.99,2.27,1.5.82.55,1.63,1.11,2.43,1.68,2.3,1.63,4.55,3.33,6.74,5.12.52.41,1.03.84,1.54,1.27.64.53,1.28,1.08,1.9,1.63,3.58,3.12,6.97,6.45,10.17,9.96.32.35.64.7.95,1.05.5.56.99,1.12,1.48,1.69.48.56.97,1.13,1.44,1.71.97,1.15,1.9,2.32,2.81,3.5,1.44,1.86,2.83,3.76,4.16,5.71.23.33.47.67.7,1.01.1.15.2.31.31.47.33.5.66,1,.98,1.51.82,1.25,1.6,2.52,2.36,3.8.38.64.76,1.28,1.13,1.93.39.67.77,1.35,1.14,2.03.19.34.37.68.55,1.02.55,1.03,1.09,2.06,1.61,3.1.33.66.65,1.32.97,1.98.09.19.19.39.29.6.33.72.66,1.44.99,2.16.24.53.48,1.06.71,1.6Z"/>
    <path class="cls-2" d="M552.53,252.86h0c-3.6,13.77-8.99,25.95-20.04,32.35-16.8,9.73-42.12,7.47-48.04-1.27-3.2-4.71.11-13.75,3.61-23.32,5.01-13.7,11.25-30.74,1.59-46.35-8.24-13.34-27.97-23.84-43.09-17.59-13.9,5.75-15.96,21.54-17.95,36.8-1.8,13.74-3.65,27.94-13.31,33.84-6.63,4.06-15.47,4.23-18.65,1.67-2.52-2.03-2.23-8.29-1.95-14.35.42-9.15.95-20.55-8.13-27.71-12.98-10.23-38.99-4.11-52.52,12.36-10.1,12.28-9.59,26.21-9.22,36.38.13,3.58.32,8.95-.49,10.32-.43.2-4.44,1.61-18.02-5.13.08-1.54.18-3.08.32-4.61.05-.54.1-1.08.16-1.62.05-.58.11-1.15.18-1.72.06-.53.13-1.07.2-1.6.18-1.42.38-2.83.62-4.23.05-.3.1-.6.15-.89.24-1.43.5-2.85.8-4.26.13-.68.28-1.35.43-2.01.15-.66.3-1.32.46-1.97.18-.77.38-1.54.58-2.3.11-.43.22-.86.34-1.28.11-.4.22-.8.33-1.19.41-1.45.85-2.89,1.31-4.32.19-.59.38-1.17.58-1.75.06-.19.12-.37.19-.56.22-.65.45-1.3.69-1.94.14-.41.29-.81.45-1.21.16-.43.32-.86.48-1.29.3-.77.61-1.55.93-2.31.19-.48.39-.96.59-1.43.19-.42.37-.84.55-1.25.21-.49.43-.98.65-1.47.87-1.91,1.78-3.79,2.74-5.64.35-.69.71-1.37,1.08-2.06.92-1.7,1.87-3.37,2.86-5.01.22-.38.45-.75.68-1.12,1.71-2.79,3.53-5.5,5.45-8.14.21-.29.42-.58.63-.86.2-.28.41-.56.63-.84.21-.28.42-.56.64-.84.43-.56.86-1.12,1.3-1.67,3.05-3.86,6.33-7.53,9.82-11,.25-.25.5-.49.75-.74.75-.74,1.52-1.47,2.29-2.19.51-.48,1.03-.95,1.55-1.42.53-.47,1.05-.94,1.58-1.4.53-.46,1.06-.92,1.6-1.37.59-.51,1.19-1,1.8-1.49.49-.4.98-.79,1.47-1.18.52-.4,1.04-.8,1.56-1.2.59-.46,1.19-.91,1.8-1.35.49-.36.98-.72,1.48-1.08.65-.46,1.31-.92,1.97-1.37.58-.4,1.16-.79,1.75-1.18.59-.39,1.18-.77,1.78-1.15.64-.41,1.3-.82,1.95-1.22.12-.08.25-.15.38-.23.42-.25.85-.51,1.28-.76.71-.42,1.43-.84,2.15-1.25.51-.29,1.02-.57,1.54-.85.62-.34,1.24-.67,1.87-1,.78-.41,1.57-.82,2.37-1.21.31-.16.62-.31.93-.46.8-.39,1.61-.78,2.43-1.15,5.14-2.36,10.47-4.39,15.96-6.05,11.52-3.5,23.73-5.38,36.38-5.38s25.7,2.01,37.57,5.74c5.45,1.71,10.74,3.78,15.84,6.19.96.45,1.92.92,2.87,1.4.87.44,1.74.89,2.6,1.35,1.16.62,2.31,1.25,3.45,1.91.43.25.87.5,1.3.76.43.25.86.51,1.29.77,1.27.76,2.52,1.55,3.75,2.36.38.24.75.49,1.12.74,2.38,1.6,4.7,3.27,6.97,5.03.7.54,1.39,1.09,2.07,1.64.43.35.87.7,1.29,1.06.43.35.85.71,1.27,1.07.24.19.47.4.71.61.36.3.71.61,1.06.92.48.43.96.85,1.43,1.29.38.35.76.7,1.14,1.05,2.68,2.5,5.24,5.12,7.69,7.85.63.69,1.24,1.4,1.86,2.11.63.74,1.27,1.49,1.89,2.26.46.56.91,1.12,1.36,1.69.39.49.78.98,1.16,1.48.66.86,1.31,1.72,1.94,2.6.02.02.04.05.05.07.66.9,1.3,1.8,1.93,2.72,2.16,3.16,4.19,6.41,6.07,9.77.36.64.71,1.29,1.06,1.94.48.9.96,1.81,1.42,2.73.12.24.24.48.36.72.13.24.25.48.36.73.31.63.61,1.26.91,1.89.02.03.03.06.04.08.28.61.56,1.22.83,1.83.29.64.58,1.29.85,1.93.28.65.55,1.3.82,1.95.47,1.14.92,2.3,1.35,3.46.16.42.32.85.47,1.28.21.57.41,1.15.61,1.73.17.49.34.98.5,1.48.14.42.28.84.42,1.27.38,1.2.75,2.4,1.09,3.61Z"/>
  </g>
  <path class="cls-3" d="M557.36,287.39c0,3.65-.16,7.26-.47,10.83-.45,5.37-1.25,10.64-2.37,15.79-2.97,13.69-8.17,26.56-15.21,38.19-3.25.1-6.5.18-9.74.25-3.22.08-6.44.14-9.66.19-2.71.04-5.41.07-8.12.09-.78.01-1.55.02-2.32.01-2.49.03-4.98.04-7.48.04s-4.81,0-7.21-.02c-.04,0-.07,0-.11,0-.07,0-.14,0-.21,0-.34,0-.67,0-1.01-.01-1.47,0-2.93-.01-4.4-.03-3.82-.03-7.64-.08-11.46-.15-1.85-.03-3.71-.07-5.56-.11h-.01s-.01.01-.03,0c-.01.01-.02.01-.03,0,0,0-.01.01-.02,0-.03.01-.05.01-.08,0-3.25-.06-6.5-.15-9.75-.25-2.82-.08-5.64-.17-8.46-.27-4.15-.14-8.3-.3-12.46-.49-1.07-.05-2.13-.1-3.19-.15-2.1-.09-4.2-.19-6.31-.3-2.32-.12-4.64-.24-6.97-.37-2.48-.14-4.97-.28-7.46-.44-2.3-.14-4.61-.29-6.91-.44-2.08-.13-4.15-.27-6.23-.42h-.04c-2.11-.14-4.21-.3-6.32-.46-2.08-.15-4.15-.31-6.22-.48-1.25-.1-2.5-.19-3.75-.3-.64-.04-1.27-.09-1.91-.15-1.12-.09-2.24-.18-3.37-.28-.26-.02-.53-.04-.8-.07-1.67-.14-3.33-.29-5-.44-1.94-.17-3.88-.34-5.82-.52-2.47-.23-4.95-.46-7.42-.7-.98-.1-1.95-.2-2.93-.31-.43-.04-.86-.09-1.29-.15-1.59-.18-3.18-.38-4.77-.6-.39-.06-.79-.12-1.19-.17-.51-.07-1.01-.14-1.51-.22-1.03-.15-2.05-.31-3.08-.47-.21-.03-.42-.06-.63-.1-1.08-.17-2.17-.35-3.25-.53-.6-.1-1.2-.2-1.8-.31-3.81-.65-7.62-1.36-11.42-2.1-1.58-.3-3.17-.61-4.75-.91-3.33-.64-6.66-1.29-9.99-1.92-1.5-3.39-2.86-6.86-4.07-10.41-1.55-4.58-2.85-9.28-3.88-14.08-.18-.84-.35-1.68-.51-2.53-.16-.84-.32-1.69-.46-2.54-.08-.44-.15-.89-.22-1.34-.08-.48-.16-.97-.22-1.46-.26-1.69-.47-3.38-.65-5.09,12.97,4.91,22.25,4.56,28.78-.67,7.86-6.29,7.5-16.23,7.18-25-.3-8.5-.62-17.29,5.14-24.31,8.23-10,23.67-12.64,27.48-9.64,1.81,1.43,1.52,7.7,1.29,12.74-.44,9.55-.99,21.44,8.63,29.2,10.87,8.76,28.39,6.37,39.35-.33,16.99-10.4,19.63-30.62,21.76-46.87,1.26-9.71,2.7-20.73,6.98-22.49,4.92-2.04,16.16,2.74,20.91,10.41,5.05,8.18,1.05,19.12-3.19,30.7-4.68,12.79-9.99,27.28-1.61,39.63,6.89,10.14,21.74,15.54,37.75,15.54,11.66,0,23.93-2.86,34.21-8.81,6.61-3.84,11.76-8.76,15.84-14.39.01.33.01.66.01.99Z"/>
</svg>